<?xml version="1.0" standalone="no"?>
<!DOCTYPE svg PUBLIC "-//W3C//DTD SVG 20010904//EN"
 "http://www.w3.org/TR/2001/REC-SVG-20010904/DTD/svg10.dtd">
<svg version="1.0" xmlns="http://www.w3.org/2000/svg"
 width="256.000000pt" height="256.000000pt" viewBox="0 0 256.000000 256.000000"
 preserveAspectRatio="xMidYMid meet">
<metadata>
Created by potrace 1.14, written by Peter Selinger 2001-2017
</metadata>
<g transform="translate(0.000000,256.000000) scale(0.100000,-0.100000)"
fill="#000000" stroke="none">
<path d="M442 2541 c-8 -24 -16 -26 -72 -25 -45 0 -51 -2 -56 -23 -5 -19 -13
-23 -46 -23 -31 0 -41 -4 -45 -19 -3 -11 -13 -21 -24 -24 -11 -3 -19 -14 -19
-26 0 -15 -6 -21 -21 -21 -12 0 -23 -8 -26 -20 -3 -10 -14 -22 -24 -25 -10 -4
-19 -14 -19 -23 0 -10 -10 -22 -23 -27 -17 -8 -22 -18 -22 -45 0 -27 -5 -36
-20 -40 -19 -6 -20 -14 -19 -149 0 -132 2 -144 21 -159 13 -11 19 -27 18 -45
-1 -22 4 -31 21 -40 13 -5 24 -18 24 -29 0 -11 7 -18 19 -18 10 0 21 -9 24
-20 3 -11 16 -24 29 -29 12 -4 21 -12 19 -17 -2 -5 6 -13 18 -19 18 -9 21 -18
21 -78 0 -60 -2 -70 -20 -74 -13 -3 -20 -14 -21 -29 0 -13 -1 -41 -1 -61 -1
-30 -6 -39 -22 -43 -19 -5 -21 -14 -24 -93 -3 -79 -5 -87 -22 -87 -19 0 -20
-8 -20 -215 0 -204 1 -215 20 -225 17 -9 20 -21 20 -83 0 -77 5 -90 33 -100
10 -4 17 -12 16 -19 -5 -43 2 -68 20 -68 12 0 21 -9 25 -25 4 -16 13 -25 27
-25 11 0 19 -6 18 -12 -1 -7 -1 -28 0 -45 1 -26 5 -33 22 -33 28 0 150 -129
143 -151 -3 -12 5 -20 26 -27 16 -6 30 -18 30 -26 0 -16 4 -18 55 -20 18 -1
30 -6 30 -14 0 -21 33 -40 60 -34 20 3 25 0 25 -17 0 -23 -1 -23 110 -25 59
-1 65 -3 68 -23 l3 -22 307 2 c298 2 306 3 312 22 5 19 13 20 103 20 93 0 120
4 118 19 -3 21 4 25 47 24 76 -1 82 1 82 22 0 11 5 21 10 21 6 1 19 3 30 4 11
1 27 3 35 4 8 0 15 10 15 22 0 11 4 18 8 15 13 -8 35 11 39 34 4 28 122 150
145 150 10 0 19 5 19 10 1 6 2 16 3 23 1 11 23 14 134 16 29 1 42 5 42 15 0
20 17 29 53 28 21 0 31 5 34 18 3 11 14 22 24 25 21 7 21 8 23 110 l1 70 30 1
c17 1 35 2 41 3 7 1 14 10 17 21 3 11 12 20 21 20 18 0 18 -2 22 69 2 45 0 54
-16 58 -11 3 -22 14 -25 24 -4 10 -9 19 -13 20 -4 1 -19 2 -33 3 -35 4 -50 14
-48 34 3 37 -2 50 -22 55 -12 3 -20 13 -19 24 5 40 -1 63 -14 63 -8 0 -18 5
-21 10 -9 15 4 50 18 47 6 -1 13 8 15 20 2 13 13 24 28 27 22 6 24 11 24 66 0
44 4 60 13 60 15 0 37 41 37 66 0 9 7 22 15 30 26 27 23 113 -6 133 -11 8 -19
25 -19 42 0 15 -8 34 -18 41 -10 7 -21 21 -25 31 -4 11 -16 21 -27 24 -14 4
-20 14 -20 35 0 22 -10 40 -36 64 -19 19 -39 34 -43 34 -5 0 -8 10 -8 23 -1
48 -4 56 -23 62 -11 3 -20 13 -20 22 0 8 -9 17 -20 20 -11 3 -21 9 -21 14 -1
5 -2 15 -3 22 -1 6 8 14 19 17 15 4 21 16 23 46 2 29 9 42 24 49 11 6 19 14
17 18 -2 5 8 15 23 23 22 12 27 20 24 44 -3 23 3 35 21 48 22 16 24 25 25 87
0 116 -1 125 -17 125 -9 0 -21 11 -27 25 -6 14 -17 25 -23 25 -6 0 -17 11 -23
25 -6 14 -18 25 -26 25 -7 0 -16 8 -19 19 -4 17 -16 18 -133 19 -143 0 -164
-3 -164 -24 0 -8 -11 -15 -25 -15 -14 -1 -29 -3 -35 -4 -5 -1 -14 -3 -20 -4
-5 0 -10 -8 -10 -16 0 -9 -11 -20 -25 -25 -14 -5 -25 -16 -25 -24 0 -8 -9 -18
-20 -21 -11 -3 -20 -12 -20 -20 0 -7 -11 -20 -25 -29 -14 -9 -23 -21 -20 -26
4 -6 -5 -14 -19 -20 -14 -5 -26 -16 -26 -25 0 -8 -9 -15 -20 -15 -15 0 -20 -7
-21 -30 -2 -50 -3 -53 -24 -60 -14 -5 -20 -17 -22 -41 0 -19 -2 -37 -2 -41 -1
-4 -79 -9 -173 -10 -167 -3 -173 -4 -176 -24 -3 -20 -9 -21 -138 -22 -128 -1
-134 0 -134 20 0 11 -8 22 -20 25 -23 6 -22 2 -24 70 -2 56 -8 68 -34 68 -12
0 -17 9 -18 35 -1 54 -3 57 -24 63 -15 4 -20 14 -20 42 0 28 -5 38 -19 42 -11
3 -21 13 -24 24 -3 10 -12 19 -20 19 -9 0 -19 9 -22 20 -3 11 -12 20 -18 21
-82 4 -102 9 -116 27 -13 16 -28 20 -89 20 -59 0 -75 -4 -80 -17z"/>
</g>
</svg>
